<svg width="18" height="18" viewBox="0 0 18 18" fill="none" xmlns="http://www.w3.org/2000/svg">
<path d="M17.64 9.20455C17.64 8.56636 17.5827 7.95273 17.4764 7.36364H9V10.845H13.8436C13.635 11.97 13.0009 12.9232 12.0477 13.5614V15.8195H14.9564C16.6582 14.2527 17.64 11.9455 17.64 9.20455Z" fill="#4285F4"/>
<path d="M9 18C11.43 18 13.4673 17.1941 14.9564 15.8195L12.0477 13.5614C11.2418 14.1014 10.2109 14.4205 9 14.4205C6.96182 14.4205 5.23727 13.0182 4.66 11.1818H1.75273V13.4386C3.24182 16.2059 5.92091 18 9 18Z" fill="#34A853"/>
<path d="M4.66 11.1818C4.45273 10.5682 4.34591 9.92955 4.34591 9.27273C4.34591 8.61591 4.45273 7.97727 4.66 7.36364V5.10682H1.75273C1.23273 6.18409 0.954545 7.38864 0.954545 8.68182C0.954545 9.975 1.23273 11.1795 1.75273 12.2568L4.66 10.0227V11.1818Z" fill="#FBBC05"/>
<path d="M9 3.97727C10.3218 3.97727 11.5073 4.45455 12.4755 5.38182L15.0218 2.835C13.4673 1.37636 11.43 0.545455 9 0.545455C5.92091 0.545455 3.24182 2.31273 1.75273 5.10682L4.66 7.36364C5.23727 5.52727 6.96182 3.97727 9 3.97727Z" fill="#EA4335"/>
</svg>
